<svg xmlns:xlink="http://www.w3.org/1999/xlink" xmlns="http://www.w3.org/2000/svg" viewBox="0 0 300 300" height="300" width="300"><defs><linearGradient gradientTransform="rotate(90,0.5,0.5)" id="nRgjxF3b"><stop stop-color="#ff00ff" offset="0%" /><stop stop-color="#00ffff" offset="50%" /><stop stop-color="#dd0547" offset="100%" /></linearGradient><mask id="s9J0UI5a"><rect fill="#000000" height="100%" width="100%" y="0" x="0" /><rect height="50" width="50" y="20" x="25" fill="#ffffff" /><rect height="100" width="50" y="70" x="25" fill="#ffffff" /><rect height="130" width="50" y="170" x="25" fill="#ffffff" /><rect height="100" width="50" y="50" x="125" fill="#ffffff" /><rect height="100" width="50" y="150" x="125" fill="#ffffff" /><rect height="50" width="50" y="250" x="125" fill="#ffffff" /><rect height="100" width="50" y="50" x="225" fill="#ffffff" /><rect height="50" width="50" y="150" x="225" fill="#ffffff" /><rect height="100" width="50" y="200" x="225" fill="#ffffff" /></mask></defs><rect mask="url('#s9J0UI5a')" fill="url('#nRgjxF3b')" height="100%" width="100%" y="0" x="0" /><g class="nc-bargroup"><rect height="50" width="50" y="20" x="25" fill="transparent" /><rect height="100" width="50" y="70" x="25" fill="transparent" /><rect height="130" width="50" y="170" x="25" fill="transparent" /><rect height="100" width="50" y="50" x="125" fill="transparent" /><rect height="100" width="50" y="150" x="125" fill="transparent" /><rect height="50" width="50" y="250" x="125" fill="transparent" /><rect height="100" width="50" y="50" x="225" fill="transparent" /><rect height="50" width="50" y="150" x="225" fill="transparent" /><rect height="100" width="50" y="200" x="225" fill="transparent" /></g><g class="nc-textgroup"><text title="Bar label " y="5" x="37.5" fill="#ffffff" /><text title="Bar label " y="35" x="137.5" fill="#ffffff" /><text title="Bar label " y="35" x="237.5" fill="#ffffff" /></g></svg>