<svg width="300" height="300" viewBox="0 0 300 250" xmlns="http://www.w3.org/2000/svg"
  xmlns:xlink="http://www.w3.org/1999/xlink">
  <defs>
    <linearGradient id="2Nwx197g" gradientTransform="rotate(90,0.5,0.5)">
      <stop offset="0%" stop-color="oklch(0.7017 0.3225 328.36)"></stop>
      <stop offset="100%" stop-color="oklch(0.9054 0.15455 194.769)"></stop>
    </linearGradient>
    <mask id="S7WI4BO0">
      <rect x="0" y="0" width="100%" height="100%" fill="#000000"></rect>
      <rect fill="#ffffff" x="15" y="0" width="30" height="250"></rect>
      <rect fill="#ffffff" x="75" y="0" width="30" height="50"></rect>
      <rect fill="#ffffff" x="135" y="0" width="30" height="100"></rect>
      <rect fill="#ffffff" x="195" y="0" width="30" height="150"></rect>
      <rect fill="#ffffff" x="255" y="0" width="30" height="100"></rect>
    </mask>
  </defs>
  <rect x="0" y="0" width="100%" height="100%" fill="url('#2Nwx197g')" mask="url('#S7WI4BO0')"></rect>
  <g class="nc-bargroup">
    <rect fill="transparent" x="15" y="0" width="30" height="250" title="Bar value of 30"></rect>
    <rect fill="transparent" x="75" y="0" width="30" height="50" title="Bar value of 30"></rect>
    <rect fill="transparent" x="135" y="0" width="30" height="100" title="Bar value of 30"></rect>
    <rect fill="transparent" x="195" y="0" width="30" height="150" title="Bar value of 30"></rect>
    <rect fill="transparent" x="255" y="0" width="30" height="100" title="Bar value of 30"></rect>
  </g>
  <g class="nc-textgroup"><text fill="transparent" x="22.5" y="265" title="Bar label "></text><text fill="transparent"
      x="82.5" y="65" title="Bar label "></text><text fill="transparent" x="142.5" y="115"
      title="Bar label "></text><text fill="transparent" x="202.5" y="165" title="Bar label "></text><text
      fill="transparent" x="262.5" y="115" title="Bar label "></text></g>
</svg>